<?xml version="1.0" encoding="utf-8"?>
<!-- Generator: Adobe Illustrator 22.0.0, SVG Export Plug-In . SVG Version: 6.00 Build 0)  -->
<svg version="1.1" id="Layer_1" xmlns="http://www.w3.org/2000/svg" xmlns:xlink="http://www.w3.org/1999/xlink" x="0px" y="0px"
	 viewBox="0 0 100 45.2" style="enable-background:new 0 0 100 45.2;" xml:space="preserve">
<style type="text/css">
	.st0{fill:#44BBE9;}
	.st1{fill:none;}
	.st2{fill:#1989C0;}
	.st3{fill:#1B9AC8;}
	.st4{fill:#035C93;}
	.st5{fill:#FFFFFF;}
</style>
<path id="XMLID_84_" class="st0" d="M34.7,18.3c-4,0.8-8.2,0.5-12.3,0.4c-3.8-0.1-8-0.4-11.7,0.6c-2.1,0.2-3.4,1.8-4.2,3.9
	c0.4-0.5,0.8-0.9,1.3-1.2c0.5-0.3,1.2-0.5,1.7-0.2c0.6,0.2,0.9,0.9,0.7,1.5c-0.2,0.4-0.6,0.6-1,0.7s-0.8,0.1-1.3,0
	c-1.4,0-2.8,0.2-4,0.8c-1.3,0.6-2.3,1.7-2.8,3c-0.4,1-0.4,2.2,0,3.2c0.7-1.5,2.4-2.3,4.1-2.5c1.3-0.1,2.9,0,4.3,0.1
	c2.8,1,5.2,3.1,6.5,5.8c4-6.5,10.1-11.8,17.1-14.8c1.6-0.7,3.3-1.3,4.8-2.1C36.9,17.8,35.8,18.1,34.7,18.3z"/>
<path id="XMLID_83_" class="st1" d="M53.3,15.1L53.3,15.1C53.3,15.1,53.3,15,53.3,15.1C53.3,15,53.3,15.1,53.3,15.1z"/>
<path id="XMLID_82_" class="st1" d="M51.5,23.7L51.5,23.7C51.5,23.6,51.5,23.6,51.5,23.7L51.5,23.7z"/>
<path id="XMLID_81_" class="st2" d="M55.1,12.1c-0.8,1-1.3,2-1.8,3c0.3-0.2,0.6-0.5,1-0.7c5-3.1,11.2-2.9,17-2.7
	c5.8,0.2,12,0.3,16.9-3c-9.5-0.3-19-0.6-28.5-0.9c0.4-0.2,0.8-0.4,1.2-0.6C58.5,8.1,56.5,9.9,55.1,12.1z"/>
<path id="XMLID_80_" class="st3" d="M50.3,26c0.3-0.5,0.5-1,0.7-1.5c-0.1,0.2-0.2,0.3-0.2,0.5l0.6-1.4v-0.1c0,0,0,0,0,0.1
	c0,0,0,0,0-0.1l0,0c0.3-0.6,0.6-1.1,0.9-1.7c0.6-1,1.4-1.9,2.3-2.5s2-0.9,3.1-1.1c1.4,0,2.8,0,4.2,0.1c5.6,0.2,11.7,0.2,16.4-2.7
	c-8.4-0.2-16.7-0.5-25.1-0.7c-0.7,1.6-1.2,3.3-1.7,5.1C50.8,22.9,50.6,24.6,50.3,26z"/>
<path id="XMLID_79_" class="st0" d="M53.1,24.1c-0.3,0.3-0.7,0.6-1,0.9c5.6,0.2,11.5,0.2,16.2-2.7c-3.6-0.1-7.2-0.2-10.9-0.3
	C55.8,22.3,54.3,23.1,53.1,24.1z"/>
<path id="XMLID_78_" class="st1" d="M22.7,39.5c-0.8,0.4-1.5,1-2.3,1.6c1-0.7,2.1-1.3,3.1-2C23.2,39.2,22.9,39.4,22.7,39.5z"/>
<path id="XMLID_87_" class="st4" d="M64.1,0.7c-2.8-0.1-5.7-0.2-8.4,0.8c-4.2,1.6-7,5.5-9.4,9.4c-0.7,1.2-1.5,2.5-2.2,3.7
	c-1.4,1.5-3.2,2.6-5.2,3.4c-1.5,0.8-3.2,1.4-4.8,2.1C27,23.1,21,28.3,17,34.9c0,0.1-0.1,0.1-0.1,0.2c-1.4,2.8-1.9,6.1-1.7,9.3
	l5.1-3.4c0.8-0.7,1.6-1.2,2.3-1.6c0.3-0.1,0.5-0.3,0.8-0.4c0.8-0.5,1.6-1,2.4-1.5v-5.2c0-1.2,1-2.2,2.2-2.2h13
	c4.6-2,9.1-3.8,9.3-4.2c0.3-1.4,0.5-3.1,1.2-5.9c0.6-1.7,1-3.4,1.7-5.1l0,0c0,0,0,0,0.1,0c0.5-1,1-2,1.8-3c1.4-2.2,3.4-4,5.8-4.9
	c5.3-2.3,11.5-2.1,17.4-1.9c6.8,0.3,14,0.3,19.7-3.5C86.7,1.4,75.4,1.1,64.1,0.7z"/>
<g id="XMLID_17_">
	<path id="XMLID_67_" class="st5" d="M34.2,32.2v0.7h-4.1v2.8h3.6v0.7h-3.6v4.3H28v-8.6h6.2V32.2z"/>
	<path id="XMLID_64_" class="st5" d="M40.2,32l4,8.8H42l-1.1-2.4h-3.3l-1.1,2.4h-1.4l4.2-8.8H40.2z M38.1,37.7h2.6l-1.3-2.8
		L38.1,37.7z"/>
	<path id="XMLID_62_" class="st5" d="M46.5,32.2h2.1v7.7H53v0.9h-6.5V32.2L46.5,32.2z"/>
	<path id="XMLID_60_" class="st5" d="M57.6,36.5c0,0.6,0.1,1,0.3,1.5c0.2,0.4,0.4,0.8,0.7,1.1c0.3,0.3,0.6,0.5,1,0.7
		c0.4,0.1,0.7,0.2,1.1,0.2c0.3,0,0.6-0.1,0.8-0.2c0.3-0.1,0.5-0.2,0.7-0.4c0.2-0.2,0.4-0.4,0.6-0.6c0.2-0.2,0.4-0.5,0.6-0.7l0.9,0.6
		c-0.2,0.3-0.4,0.6-0.7,0.9s-0.6,0.5-0.9,0.8c-0.3,0.2-0.7,0.4-1.1,0.5s-0.8,0.2-1.3,0.2c-0.7,0-1.4-0.1-2-0.3
		c-0.6-0.2-1.2-0.5-1.6-0.9c-0.5-0.4-0.8-0.9-1.1-1.4s-0.4-1.2-0.4-1.8c0-0.4,0.1-0.8,0.2-1.2c0.1-0.4,0.3-0.8,0.5-1.1
		s0.5-0.6,0.7-0.9c0.3-0.3,0.6-0.5,1-0.7s0.8-0.3,1.2-0.4c0.4-0.1,0.9-0.1,1.4-0.1s1,0.1,1.4,0.2s0.8,0.3,1.1,0.5s0.6,0.5,0.9,0.7
		c0.3,0.3,0.5,0.6,0.7,0.9l-0.9,0.6c-0.2-0.3-0.4-0.5-0.6-0.7c-0.2-0.2-0.4-0.4-0.7-0.6c-0.2-0.2-0.5-0.3-0.8-0.4s-0.5-0.1-0.8-0.1
		c-0.4,0-0.8,0.1-1.1,0.2c-0.4,0.1-0.7,0.4-0.9,0.7c-0.3,0.3-0.5,0.6-0.6,1.1C57.6,35.5,57.6,36,57.6,36.5z"/>
	<path id="XMLID_57_" class="st5" d="M71.7,41c-0.5,0-0.9-0.1-1.3-0.2c-0.4-0.1-0.8-0.2-1.2-0.4c-0.4-0.2-0.7-0.4-1-0.7
		c-0.3-0.3-0.6-0.6-0.8-0.9s-0.4-0.7-0.5-1.1s-0.2-0.8-0.2-1.3c0-0.4,0.1-0.8,0.2-1.2c0.1-0.4,0.3-0.7,0.5-1.1
		c0.2-0.3,0.5-0.6,0.8-0.9s0.6-0.5,1-0.7s0.8-0.3,1.2-0.4s0.9-0.1,1.3-0.1s0.9,0.1,1.3,0.1c0.4,0.1,0.8,0.2,1.2,0.4
		c0.4,0.2,0.7,0.4,1,0.7c0.3,0.3,0.6,0.6,0.8,0.9s0.4,0.7,0.5,1.1s0.2,0.8,0.2,1.2c0,0.5-0.1,0.9-0.2,1.3c-0.1,0.4-0.3,0.8-0.5,1.1
		c-0.2,0.3-0.5,0.6-0.8,0.9s-0.6,0.5-1,0.7s-0.8,0.3-1.2,0.4C72.6,41,72.1,41,71.7,41z M71.7,40.3c0.4,0,0.8-0.1,1.1-0.3
		c0.3-0.2,0.6-0.5,0.8-0.8s0.4-0.7,0.5-1.2s0.2-1,0.2-1.5s-0.1-1-0.2-1.5c-0.1-0.5-0.3-0.8-0.5-1.2c-0.2-0.3-0.5-0.6-0.8-0.8
		s-0.7-0.3-1.1-0.3s-0.8,0.1-1.1,0.3s-0.6,0.4-0.8,0.8c-0.2,0.3-0.4,0.7-0.5,1.2s-0.2,1-0.2,1.5c0,0.6,0.1,1.1,0.2,1.5
		c0.1,0.5,0.3,0.9,0.5,1.2c0.2,0.3,0.5,0.6,0.8,0.8C70.9,40.2,71.2,40.3,71.7,40.3z"/>
	<path id="XMLID_55_" class="st5" d="M79.4,32.2h1.3l4.9,5.5v-5.5h1.3v8.7H86l-5.3-6v5.9h-1.3V32.2L79.4,32.2z"/>
	<path id="XMLID_39_" class="st5" d="M91.5,32.2l2.8,3.9l2.6-3.9h1.4L95,37.1v3.7h-2.1v-3.6l-3.7-5H91.5L91.5,32.2z"/>
</g>
</svg>
