<?xml version="1.0" encoding="utf-8"?>
<!-- Generator: Adobe Illustrator 19.0.0, SVG Export Plug-In . SVG Version: 6.00 Build 0)  -->
<svg version="1.1" id="Layer_1" xmlns="http://www.w3.org/2000/svg" xmlns:xlink="http://www.w3.org/1999/xlink" x="0px" y="0px"
	 viewBox="450 432 100 45.2" style="enable-background:new 450 432 100 45.2;" xml:space="preserve">
<style type="text/css">
	.st0{fill:#44BBE9;}
	.st1{fill:none;}
	.st2{fill:#1989C0;}
	.st3{fill:#1B9AC8;}
	.st4{fill:#035C93;}
</style>
<path id="XMLID_76_" class="st0" d="M484.9,450.6c-4,0.8-8.2,0.5-12.3,0.4c-3.8-0.1-8-0.4-11.7,0.6c-2.1,0.2-3.4,1.8-4.2,3.9
	c0.4-0.5,0.8-0.9,1.3-1.2c0.5-0.3,1.2-0.5,1.7-0.2s0.9,0.9,0.7,1.5c-0.2,0.4-0.6,0.6-1,0.7c-0.4,0.1-0.8,0.1-1.3,0
	c-1.4,0-2.8,0.2-4,0.8s-2.3,1.7-2.8,3c-0.4,1-0.4,2.2,0,3.2c0.7-1.5,2.4-2.3,4.1-2.5c1.3-0.1,2.9,0,4.3,0.1c2.8,1,5.2,3.1,6.4,5.8
	c4-6.5,10-11.8,17.1-14.7c1.6-0.7,3.3-1.3,4.8-2.1C487.1,450.1,486,450.4,484.9,450.6z"/>
<path id="XMLID_75_" class="st1" d="M503.4,447.4C503.4,447.4,503.5,447.4,503.4,447.4C503.5,447.4,503.5,447.3,503.4,447.4
	C503.5,447.3,503.4,447.4,503.4,447.4z"/>
<path id="XMLID_74_" class="st1" d="M501.6,456C501.6,456,501.6,455.9,501.6,456C501.6,455.9,501.6,455.9,501.6,456
	C501.6,455.9,501.6,456,501.6,456z"/>
<path id="XMLID_73_" class="st2" d="M505.3,444.4c-0.8,1-1.3,2-1.8,3c0.3-0.2,0.6-0.5,1-0.7c5-3.1,11.2-2.9,17-2.7
	c5.8,0.2,12,0.3,16.9-3c-9.5-0.3-19-0.6-28.5-0.9c0.4-0.2,0.8-0.4,1.2-0.6C508.7,440.4,506.7,442.2,505.3,444.4z"/>
<path id="XMLID_72_" class="st3" d="M500.5,458.3c0.3-0.5,0.5-1,0.7-1.5c-0.1,0.2-0.2,0.3-0.2,0.5l0.6-1.4c0,0,0-0.1,0-0.1
	c0,0-0.3,0-0.3,0.1c0,0-0.3,0-0.3-0.1c0,0,0,0,0,0c1-0.6,0.9-1.1,1.2-1.6c0.6-1,1.5-1.9,2.5-2.5c0.9-0.6,2.1-0.9,3.1-1.1
	c1.4,0,2.9,0,4.2,0.1c5.6,0.2,11.7,0.2,16.4-2.7c-8.3-0.2-16.7-0.5-25-0.7c-0.7,1.6-1.2,3.3-1.7,5.1
	C501,455.2,500.8,456.9,500.5,458.3z"/>
<path id="XMLID_71_" class="st0" d="M503.2,456.4c-0.4,0.3-0.7,0.6-1,0.9c5.6,0.2,11.5,0.2,16.2-2.7c-3.6-0.1-7.2-0.2-10.9-0.3
	C505.9,454.6,504.5,455.4,503.2,456.4z"/>
<path id="XMLID_70_" class="st1" d="M472.9,471.8c-0.8,0.4-1.5,1-2.3,1.6c1-0.7,2-1.3,3.1-2C473.4,471.5,473.1,471.6,472.9,471.8z"
	/>
<path id="XMLID_69_" class="st4" d="M470.6,473.4c0.8-0.7,1.6-1.2,2.3-1.6c0.3-0.1,0.5-0.3,0.8-0.4c2.9-1.9,5.9-3.6,9-5.2
	c5.2-2.6,17.4-7.2,17.8-7.9c0.3-1.4,0.5-3.1,1.2-5.9c0.6-1.7,1-3.4,1.7-5.1c0,0,0,0,0,0c0,0,0,0,0.1,0c0.5-1,1-2,1.8-3
	c1.4-2.2,3.4-4,5.8-4.9c5.3-2.3,11.5-2.1,17.4-1.9c6.7,0.3,14,0.3,19.6-3.5c-11.3-0.3-22.6-0.7-33.8-1c-2.8-0.1-5.7-0.2-8.4,0.8
	c-4.2,1.6-7,5.5-9.4,9.4c-0.7,1.2-1.5,2.5-2.2,3.7c-1.4,1.5-3.2,2.6-5.2,3.4c-1.5,0.8-3.2,1.4-4.8,2.1c-7,3-13.1,8.2-17.1,14.7
	c0,0.1-0.1,0.1-0.1,0.2c-1.4,2.8-1.9,6-1.7,9.3"/>
</svg>
