<?xml version="1.0" encoding="utf-8"?>
<!-- Generator: Adobe Illustrator 19.0.0, SVG Export Plug-In . SVG Version: 6.00 Build 0)  -->
<svg version="1.1" id="Layer_1" xmlns="http://www.w3.org/2000/svg" xmlns:xlink="http://www.w3.org/1999/xlink" x="0px" y="0px"
	 viewBox="450 432 100 45.2" style="enable-background:new 450 432 100 45.2;" xml:space="preserve">
<style type="text/css">
	.st0{fill:#44BBE9;}
	.st1{fill:none;}
	.st2{fill:#1989C0;}
	.st3{fill:#1B9AC8;}
	.st4{fill:#035C93;}
</style>
<path id="XMLID_84_" class="st0" d="M484.7,450.3c-4,0.8-8.2,0.5-12.3,0.4c-3.8-0.1-8-0.4-11.7,0.6c-2.1,0.2-3.4,1.8-4.2,3.9
	c0.4-0.5,0.8-0.9,1.3-1.2c0.5-0.3,1.2-0.5,1.7-0.2c0.6,0.2,0.9,0.9,0.7,1.5c-0.2,0.4-0.6,0.6-1,0.7c-0.4,0.1-0.8,0.1-1.3,0
	c-1.4,0-2.8,0.2-4,0.8c-1.3,0.6-2.3,1.7-2.8,3c-0.4,1-0.4,2.2,0,3.2c0.7-1.5,2.4-2.3,4.1-2.5c1.3-0.1,2.9,0,4.3,0.1
	c2.8,1,5.2,3.1,6.5,5.8c4-6.5,10.1-11.8,17.1-14.8c1.6-0.7,3.3-1.3,4.8-2.1C486.9,449.8,485.8,450.1,484.7,450.3z"/>
<path id="XMLID_83_" class="st1" d="M503.3,447.1C503.3,447.1,503.3,447.1,503.3,447.1C503.3,447.1,503.3,447,503.3,447.1
	C503.3,447,503.3,447.1,503.3,447.1z"/>
<path id="XMLID_82_" class="st1" d="M501.5,455.7C501.5,455.7,501.5,455.7,501.5,455.7C501.5,455.6,501.5,455.6,501.5,455.7
	C501.5,455.7,501.5,455.7,501.5,455.7z"/>
<path id="XMLID_81_" class="st2" d="M505.1,444.1c-0.8,1-1.3,2-1.8,3c0.3-0.2,0.6-0.5,1-0.7c5-3.1,11.2-2.9,17-2.7
	c5.8,0.2,12,0.3,16.9-3c-9.5-0.3-19-0.6-28.5-0.9c0.4-0.2,0.8-0.4,1.2-0.6C508.5,440.1,506.5,441.9,505.1,444.1z"/>
<path id="XMLID_80_" class="st3" d="M500.3,458c0.3-0.5,0.5-1,0.7-1.5c-0.1,0.2-0.2,0.3-0.2,0.5l0.6-1.4c0,0,0-0.1,0-0.1
	c0,0,0,0,0,0.1c0,0,0,0,0-0.1c0,0,0,0,0,0c0.3-0.6,0.6-1.1,0.9-1.7c0.6-1,1.4-1.9,2.3-2.5c0.9-0.6,2-0.9,3.1-1.1
	c1.4,0,2.8,0,4.2,0.1c5.6,0.2,11.7,0.2,16.4-2.7c-8.4-0.2-16.7-0.5-25.1-0.7c-0.7,1.6-1.2,3.3-1.7,5.1
	C500.8,454.9,500.6,456.6,500.3,458z"/>
<path id="XMLID_79_" class="st0" d="M503.1,456.1c-0.3,0.3-0.7,0.6-1,0.9c5.6,0.2,11.5,0.2,16.2-2.7c-3.6-0.1-7.2-0.2-10.9-0.3
	C505.8,454.3,504.3,455.1,503.1,456.1z"/>
<path id="XMLID_78_" class="st1" d="M472.7,471.5c-0.8,0.4-1.5,1-2.3,1.6c1-0.7,2.1-1.3,3.1-2C473.2,471.2,472.9,471.4,472.7,471.5z
	"/>
<path id="XMLID_87_" class="st4" d="M514.1,432.7c-2.8-0.1-5.7-0.2-8.4,0.8c-4.2,1.6-7,5.5-9.4,9.4c-0.7,1.2-1.5,2.5-2.2,3.7
	c-1.4,1.5-3.2,2.6-5.2,3.4c-1.5,0.8-3.2,1.4-4.8,2.1c-7.1,3-13.1,8.2-17.1,14.8c0,0.1-0.1,0.1-0.1,0.2c-1.4,2.8-1.9,6.1-1.7,9.3
	l5.1-3.4c0.8-0.7,1.6-1.2,2.3-1.6c0.3-0.1,0.5-0.3,0.8-0.4c0.8-0.5,1.6-1,2.4-1.5v-5.2c0-1.2,1-2.2,2.2-2.2h13
	c4.6-2,9.1-3.8,9.3-4.2c0.3-1.4,0.5-3.1,1.2-5.9c0.6-1.7,1-3.4,1.7-5.1c0,0,0,0,0,0c0,0,0,0,0.1,0c0.5-1,1-2,1.8-3
	c1.4-2.2,3.4-4,5.8-4.9c5.3-2.3,11.5-2.1,17.4-1.9c6.8,0.3,14,0.3,19.7-3.5C536.7,433.4,525.4,433.1,514.1,432.7z"/>
<g id="XMLID_17_">
	<path id="XMLID_67_" d="M484.2,464.2v0.7h-4.1v2.8h3.6v0.7h-3.6v4.3H478v-8.6H484.2L484.2,464.2z"/>
	<path id="XMLID_64_" d="M490.2,464l4,8.8h-2.2l-1.1-2.4h-3.3l-1.1,2.4h-1.4l4.2-8.8H490.2z M488.1,469.7h2.6l-1.3-2.8L488.1,469.7z
		"/>
	<path id="XMLID_62_" d="M496.5,464.2h2.1v7.7h4.4v0.9h-6.5V464.2L496.5,464.2z"/>
	<path id="XMLID_60_" d="M507.6,468.5c0,0.6,0.1,1,0.3,1.5c0.2,0.4,0.4,0.8,0.7,1.1c0.3,0.3,0.6,0.5,1,0.7c0.4,0.1,0.7,0.2,1.1,0.2
		c0.3,0,0.6-0.1,0.8-0.2c0.3-0.1,0.5-0.2,0.7-0.4c0.2-0.2,0.4-0.4,0.6-0.6c0.2-0.2,0.4-0.5,0.6-0.7l0.9,0.6
		c-0.2,0.3-0.4,0.6-0.7,0.9c-0.3,0.3-0.6,0.5-0.9,0.8c-0.3,0.2-0.7,0.4-1.1,0.5c-0.4,0.1-0.8,0.2-1.3,0.2c-0.7,0-1.4-0.1-2-0.3
		c-0.6-0.2-1.2-0.5-1.6-0.9c-0.5-0.4-0.8-0.9-1.1-1.4s-0.4-1.2-0.4-1.8c0-0.4,0.1-0.8,0.2-1.2c0.1-0.4,0.3-0.8,0.5-1.1
		s0.5-0.6,0.7-0.9c0.3-0.3,0.6-0.5,1-0.7c0.4-0.2,0.8-0.3,1.2-0.4c0.4-0.1,0.9-0.1,1.4-0.1s1,0.1,1.4,0.2c0.4,0.1,0.8,0.3,1.1,0.5
		c0.3,0.2,0.6,0.5,0.9,0.7c0.3,0.3,0.5,0.6,0.7,0.9l-0.9,0.6c-0.2-0.3-0.4-0.5-0.6-0.7c-0.2-0.2-0.4-0.4-0.7-0.6
		c-0.2-0.2-0.5-0.3-0.8-0.4c-0.3-0.1-0.5-0.1-0.8-0.1c-0.4,0-0.8,0.1-1.1,0.2c-0.4,0.1-0.7,0.4-0.9,0.7c-0.3,0.3-0.5,0.6-0.6,1.1
		C507.6,467.5,507.6,468,507.6,468.5z"/>
	<path id="XMLID_57_" d="M521.7,473c-0.5,0-0.9-0.1-1.3-0.2c-0.4-0.1-0.8-0.2-1.2-0.4c-0.4-0.2-0.7-0.4-1-0.7
		c-0.3-0.3-0.6-0.6-0.8-0.9c-0.2-0.3-0.4-0.7-0.5-1.1c-0.1-0.4-0.2-0.8-0.2-1.3c0-0.4,0.1-0.8,0.2-1.2c0.1-0.4,0.3-0.7,0.5-1.1
		c0.2-0.3,0.5-0.6,0.8-0.9c0.3-0.3,0.6-0.5,1-0.7c0.4-0.2,0.8-0.3,1.2-0.4c0.4-0.1,0.9-0.1,1.3-0.1s0.9,0.1,1.3,0.1
		c0.4,0.1,0.8,0.2,1.2,0.4c0.4,0.2,0.7,0.4,1,0.7c0.3,0.3,0.6,0.6,0.8,0.9c0.2,0.3,0.4,0.7,0.5,1.1c0.1,0.4,0.2,0.8,0.2,1.2
		c0,0.5-0.1,0.9-0.2,1.3c-0.1,0.4-0.3,0.8-0.5,1.1c-0.2,0.3-0.5,0.6-0.8,0.9c-0.3,0.3-0.6,0.5-1,0.7c-0.4,0.2-0.8,0.3-1.2,0.4
		C522.6,473,522.1,473,521.7,473z M521.7,472.3c0.4,0,0.8-0.1,1.1-0.3c0.3-0.2,0.6-0.5,0.8-0.8c0.2-0.3,0.4-0.7,0.5-1.2
		c0.1-0.5,0.2-1,0.2-1.5c0-0.5-0.1-1-0.2-1.5c-0.1-0.5-0.3-0.8-0.5-1.2c-0.2-0.3-0.5-0.6-0.8-0.8s-0.7-0.3-1.1-0.3s-0.8,0.1-1.1,0.3
		s-0.6,0.4-0.8,0.8c-0.2,0.3-0.4,0.7-0.5,1.2c-0.1,0.5-0.2,1-0.2,1.5c0,0.6,0.1,1.1,0.2,1.5c0.1,0.5,0.3,0.9,0.5,1.2
		c0.2,0.3,0.5,0.6,0.8,0.8C520.9,472.2,521.2,472.3,521.7,472.3z"/>
	<path id="XMLID_55_" d="M529.4,464.2h1.3l4.9,5.5v-5.5h1.3v8.7h-0.9l-5.3-6v5.9h-1.3L529.4,464.2L529.4,464.2z"/>
	<path id="XMLID_39_" d="M541.5,464.2l2.8,3.9l2.6-3.9h1.4l-3.3,4.9v3.7h-2.1v-3.6l-3.7-5L541.5,464.2L541.5,464.2z"/>
</g>
</svg>
